{"title":"The Hunger Games Catching Fire R6 2013.DVDScr.x264.2Audio-SmY [P","uid":9290656,"size":2617248657,"categoryP":"video","categoryS":"movies","magnet":"?xt=urn:btih:7c8f2e147a8b45c1e41641809da787a23477a28d&amp;dn=The+Hunger+Games+Catching+Fire+R6+2013.DVDScr.x264.2Audio-SmY+%5BP&amp;tr=udp%3A%2F%2Ftracker.openbittorrent.com%3A80&amp;tr=udp%3A%2F%2Fopen.demonii.com%3A1337&amp;tr=udp%3A%2F%2Ftracker.coppersurfer.tk%3A6969&amp;tr=udp%3A%2F%2Fexodus.desync.com%3A6969","seeders":16,"leechers":0,"uploader":"TeX","files":2,"time":1386086188,"description":" &lt;a href=&quot;http://ultraimg.com/images/51isq.png&quot; rel=&quot;nofollow&quot; target=&quot;_NEW&quot;&gt;http://ultraimg.com/images/51isq.png&lt;/a&gt;\n\nFormat : Matroska\n      File size : 2.44 GiB\n      Duration : 2h 12mn\n      Overall bit rate : 2 637 Kbps\n      Encoded date : UTC 2010-02-22 21:41:31\n      Writing application : mkvmerge v5.9.0 ('On The Loose') built on Dec  9 2012 15:37:01\n      Writing library : libebml v1.3.0 + libmatroska v1.4.0\n   Video #1\n      ID : 1\n      Format : AVC\n      Format/Info : Advanced Video Codec\n      Format profile : &lt;a class=&quot;__cf_email__&quot; href=&quot;/cdn-cgi/l/email-protection&quot; data-cfemail=&quot;ca82a3ada28a86f9e4fb&quot;&gt;[email&amp;#160;protected]&lt;/a&gt;&lt;script cf-hash='f9e31' type=&quot;text/javascript&quot;&gt;\n/* &lt;![CDATA[ */!function(){try{var t=&quot;currentScript&quot;in document?document.currentScript:function(){for(var t=document.getElementsByTagName(&quot;script&quot;),e=t.length;e--;)if(t[e].getAttribute(&quot;cf-hash&quot;))return t[e]}();if(t&amp;&amp;t.previousSibling){var e,r,n,i,c=t.previousSibling,a=c.getAttribute(&quot;data-cfemail&quot;);if(a){for(e=&quot;&quot;,r=parseInt(a.substr(0,2),16),n=2;a.length-n;n+=2)i=parseInt(a.substr(n,2),16)^r,e+=String.fromCharCode(i);e=document.createTextNode(e),c.parentNode.replaceChild(e,c)}}}catch(u){}}();/* ]]&gt; */&lt;/script&gt;\n      Format settings, CABAC : Yes\n      Format settings, ReFrames : 4 frames\n      Muxing mode : Container profile=&lt;a class=&quot;__cf_email__&quot; href=&quot;/cdn-cgi/l/email-protection&quot; data-cfemail=&quot;1742797c7978607957243926&quot;&gt;[email&amp;#160;protected]&lt;/a&gt;&lt;script cf-hash='f9e31' type=&quot;text/javascript&quot;&gt;\n/* &lt;![CDATA[ */!function(){try{var t=&quot;currentScript&quot;in document?document.currentScript:function(){for(var t=document.getElementsByTagName(&quot;script&quot;),e=t.length;e--;)if(t[e].getAttribute(&quot;cf-hash&quot;))return t[e]}();if(t&amp;&amp;t.previousSibling){var e,r,n,i,c=t.previousSibling,a=c.getAttribute(&quot;data-cfemail&quot;);if(a){for(e=&quot;&quot;,r=parseInt(a.substr(0,2),16),n=2;a.length-n;n+=2)i=parseInt(a.substr(n,2),16)^r,e+=String.fromCharCode(i);e=document.createTextNode(e),c.parentNode.replaceChild(e,c)}}}catch(u){}}();/* ]]&gt; */&lt;/script&gt;\n      Codec ID : V_MPEG4/ISO/AVC\n      Duration : 2h 12mn\n      Bit rate : 1 944 Kbps\n      Nominal bit rate : 2 000 Kbps\n      Width : 720 pixels\n      Height : 286 pixels\n      Display aspect ratio : 2.517\n      Frame rate : 29.970 fps\n      Resolution : 8 bits\n      Colorimetry : 4:2:0\n      Scan type : Progressive\n      Bits/(Pixel*Frame) : 0.315\n      Stream size : 1.80 GiB (74%)\n      Writing library : x264 core 116 r2074 2641b9e\n   Audio #1\n      ID : 2\n      Format : AC-3\n      Format/Info : Audio Coding 3\n      Codec ID : A_AC3\n      Duration : 2h 12mn\n      Bit rate mode : Constant\n      Bit rate : 320 Kbps\n      Channel(s) : 2 channels\n      Channel positions : L R\n      Sampling rate : 48.0 KHz\n      Stream size : 303 MiB (12%)\n   Audio #2\n      ID : 3\n      Format : AC-3\n      Format/Info : Audio Coding 3\n      Codec ID : A_AC3\n      Duration : 2h 12mn\n      Bit rate mode : Constant\n      Bit rate : 320 Kbps\n      Channel(s) : 2 channels\n      Channel positions : L R\n      Sampling rate : 48.0 KHz\n      Stream size : 303 MiB (12%)\n &lt;a href=&quot;\nhttp://i1.someimage.com/juNn6gk.jpg&quot; rel=&quot;nofollow&quot; target=&quot;_NEW&quot;&gt;\nhttp://i1.someimage.com/juNn6gk.jpg&lt;/a&gt; &lt;a href=&quot;\nhttp://i1.someimage.com/F59mRLy.jpg&quot; rel=&quot;nofollow&quot; target=&quot;_NEW&quot;&gt;\nhttp://i1.someimage.com/F59mRLy.jpg&lt;/a&gt; &lt;a href=&quot;\nhttp://i1.someimage.com/vixIeSl.jpg&quot; rel=&quot;nofollow&quot; target=&quot;_NEW&quot;&gt;\nhttp://i1.someimage.com/vixIeSl.jpg&lt;/a&gt; &lt;a href=&quot;\nhttp://i1.someimage.com/H81HkSk.jpg&quot; rel=&quot;nofollow&quot; target=&quot;_NEW&quot;&gt;\nhttp://i1.someimage.com/H81HkSk.jpg&lt;/a&gt;","torrent":{"xt":"urn:btih:7c8f2e147a8b45c1e41641809da787a23477a28d","amp;dn":"The+Hunger+Games+Catching+Fire+R6+2013.DVDScr.x264.2Audio-SmY+%5BP","amp;tr":["udp%3A%2F%2Ftracker.openbittorrent.com%3A80","udp%3A%2F%2Fopen.demonii.com%3A1337","udp%3A%2F%2Ftracker.coppersurfer.tk%3A6969","udp%3A%2F%2Fexodus.desync.com%3A6969"],"infoHash":"7c8f2e147a8b45c1e41641809da787a23477a28d","infoHashBuffer":{"type":"Buffer","data":[124,143,46,20,122,139,69,193,228,22,65,128,157,167,135,162,52,119,162,141]},"announce":[],"urlList":[]}}